<svg id="visual" viewBox="0 0 200 75" width="200" height="75" xmlns="http://www.w3.org/2000/svg" xmlns:xlink="http://www.w3.org/1999/xlink" version="1.1">
	<path d="M0 6L4.8 11C9.7 16 19.3 26 28.8 28.8C38.3 31.7 47.7 27.3 57.2 29.3C66.7 31.3 76.3 39.7 85.8 41.7C95.3 43.7 104.7 39.3 114.2 36C123.7 32.7 133.3 30.3 142.8 25.2C152.3 20 161.7 12 171.2 11.8C180.7 11.7 190.3 19.3 195.2 23.2L200 27L200 76L195.2 76C190.3 76 180.7 76 171.2 76C161.7 76 152.3 76 142.8 76C133.3 76 123.7 76 114.2 76C104.7 76 95.3 76 85.8 76C76.3 76 66.7 76 57.2 76C47.7 76 38.3 76 28.8 76C19.3 76 9.7 76 4.8 76L0 76Z" fill="#2f426b">
	</path>
	<path d="M0 32L4.8 35.7C9.7 39.3 19.3 46.7 28.8 48.3C38.3 50 47.7 46 57.2 44.7C66.7 43.3 76.3 44.7 85.8 40.8C95.3 37 104.7 28 114.2 25.8C123.7 23.7 133.3 28.3 142.8 34C152.3 39.7 161.7 46.3 171.2 50.8C180.7 55.3 190.3 57.7 195.2 58.8L200 60L200 76L195.2 76C190.3 76 180.7 76 171.2 76C161.7 76 152.3 76 142.8 76C133.3 76 123.7 76 114.2 76C104.7 76 95.3 76 85.8 76C76.3 76 66.7 76 57.2 76C47.7 76 38.3 76 28.8 76C19.3 76 9.7 76 4.8 76L0 76Z" fill="#3f4d70">
	</path>
	<path d="M0 69L4.8 64.8C9.7 60.7 19.3 52.3 28.8 51C38.3 49.7 47.7 55.3 57.2 56.8C66.7 58.3 76.3 55.7 85.8 56.8C95.3 58 104.7 63 114.2 66C123.7 69 133.3 70 142.8 67.2C152.3 64.3 161.7 57.7 171.2 52.7C180.7 47.7 190.3 44.3 195.2 42.7L200 41L200 76L195.2 76C190.3 76 180.7 76 171.2 76C161.7 76 152.3 76 142.8 76C133.3 76 123.7 76 114.2 76C104.7 76 95.3 76 85.8 76C76.3 76 66.7 76 57.2 76C47.7 76 38.3 76 28.8 76C19.3 76 9.7 76 4.8 76L0 76Z" fill="#4d5875">
	</path>
</svg>
